<svg xmlns="http://www.w3.org/2000/svg" viewBox="0 0 120 120"><path d="M120,60A60,60,0,1,1,60,0,60,60,0,0,1,120,60Z" fill="#868eb8"/><path d="M98.7,30.85c-1.94.59-15.09,4.52-29.25,8.74C22.14,53.68,17.51,55.08,16.84,55.35c-1,.41-1.2.94-.65,1.59.37.4.88.59,2.65,1,2.18.49,14.1,2.69,18.12,3.34a12.48,12.48,0,0,1,2.24.49c.08.08,1,5.93,2.1,13,1.85,12.21,2,12.86,2.47,13.6a5.33,5.33,0,0,0,6,1.51c.67-.33,3-2.69,9.93-10.13C64.7,74.37,68.88,70,69,70c.31,0,17,5.36,19.59,6.28,2.77,1,3.79,1.14,4.63.61a2.19,2.19,0,0,0,.85-1c.33-1.06,10-44.25,10-44.7a1.74,1.74,0,0,0-1.41-1.38A39.87,39.87,0,0,0,98.7,30.85Zm2.06,1.73c0,.14-14.29,10.31-37.32,26.56-4.9,3.48-9.07,6.48-9.24,6.68s-3.58,9-5.58,14.62a11.92,11.92,0,0,1-.82,2c-.06-.06-.83-5-1.73-10.93-1.53-10.15-1.61-10.88-1.3-11.11.63-.49,55.6-27.92,55.93-27.92C100.74,32.5,100.76,32.54,100.76,32.58Z" fill="#fff"/></svg>